<svg viewBox="0 0 256 256" xmlns="http://www.w3.org/2000/svg">
  <!-- 顶部扇叶 (原红色 -> 亮紫) -->
  <path fill="#9D28FF" d="M128,0C81.84,0,41.44,24.4,18.08,61.92l44.64,77.36C68.96,104.96,96.32,80,128,80h109.92 C214.56,32.48,175.2,0,128,0z"/>
  <!-- 左下扇叶 (原绿色 -> 暗紫) -->
  <path fill="#4A148C" d="M0,128c0,58.88,39.68,108.56,93.92,124.08l44.64-77.36c-24-6.32-41.84-26.64-44.4-51.52L4.64,72.4 C1.68,90.16,0,108.64,0,128z"/>
  <!-- 右下扇叶 (原黄色 -> 玫紫红) -->
  <path fill="#D877FF" d="M256,128c0-18.48-3.92-36-10.88-51.92H135.2l-44.64,77.36c8,28.8,34.8,50.56,66.64,50.56 c10.32,0,20.08-2.24,28.8-6.16l44.64,77.36C246.32,242.08,256,204.4,256,164.8L256,128z"/>
  <!-- 中心底环 (原白色 -> 暗黑) -->
  <circle cx="128" cy="128" r="70" fill="#0A0A0E"/>
  <!-- 中心瞳孔 (原蓝色 -> 荧光紫) -->
  <circle cx="128" cy="128" r="56" fill="#C36BFF"/>
</svg>
